<?xml version="1.0" encoding="UTF-8" standalone="no"?>
<!-- Created with Inkscape (http://www.inkscape.org/) -->

<svg
   xmlns:dc="http://purl.org/dc/elements/1.1/"
   xmlns:cc="http://creativecommons.org/ns#"
   xmlns:rdf="http://www.w3.org/1999/02/22-rdf-syntax-ns#"
   xmlns:svg="http://www.w3.org/2000/svg"
   xmlns="http://www.w3.org/2000/svg"
   xmlns:sodipodi="http://sodipodi.sourceforge.net/DTD/sodipodi-0.dtd"
   xmlns:inkscape="http://www.inkscape.org/namespaces/inkscape"
   width="128"
   height="128"
   id="svg2"
   version="1.1"
   inkscape:version="0.48.5 r10040"
   sodipodi:docname="icon.svg"
   inkscape:export-filename="/home/georges/Documentos/Projetos/gedit-markdown/icons/gmarkdown-128.png"
   inkscape:export-xdpi="90"
   inkscape:export-ydpi="90">
  <defs
     id="defs4">
    <filter
       style="color-interpolation-filters:sRGB;"
       inkscape:label="Drop Shadow"
       id="filter3787">
      <feFlood
         flood-opacity="0.66"
         flood-color="rgb(0,0,0)"
         result="flood"
         id="feFlood3789" />
      <feComposite
         in="flood"
         in2="SourceGraphic"
         operator="in"
         result="composite1"
         id="feComposite3791" />
      <feGaussianBlur
         in="composite"
         stdDeviation="4"
         result="blur"
         id="feGaussianBlur3793" />
      <feOffset
         dx="0"
         dy="0"
         result="offset"
         id="feOffset3795" />
      <feComposite
         in="SourceGraphic"
         in2="offset"
         operator="over"
         result="composite2"
         id="feComposite3797" />
    </filter>
  </defs>
  <sodipodi:namedview
     id="base"
     pagecolor="#ffffff"
     bordercolor="#666666"
     borderopacity="1.0"
     inkscape:pageopacity="0.0"
     inkscape:pageshadow="2"
     inkscape:zoom="3.7284552"
     inkscape:cx="62.026516"
     inkscape:cy="62.251781"
     inkscape:document-units="px"
     inkscape:current-layer="layer1"
     showgrid="false"
     inkscape:window-width="1366"
     inkscape:window-height="704"
     inkscape:window-x="0"
     inkscape:window-y="27"
     inkscape:window-maximized="1" />
  <metadata
     id="metadata7">
    <rdf:RDF>
      <cc:Work
         rdf:about="">
        <dc:format>image/svg+xml</dc:format>
        <dc:type
           rdf:resource="http://purl.org/dc/dcmitype/StillImage" />
        <dc:title />
      </cc:Work>
    </rdf:RDF>
  </metadata>
  <g
     inkscape:label="Camada 1"
     inkscape:groupmode="layer"
     id="layer1"
     transform="translate(0,-924.36218)">
    <rect
       style="fill:#ffffff;fill-opacity:1;stroke:none;filter:url(#filter3787)"
       id="rect3761"
       width="96"
       height="96"
       x="16"
       y="940.36218"
       ry="6.1506686"
       transform="matrix(1.034226,0,0,1.034226,-2.1904612,-33.827647)" />
    <g
       transform="matrix(1.0906792,0,0,1.0906792,15.783841,899.65197)"
       style="font-size:96px;font-style:normal;font-variant:normal;font-weight:500;font-stretch:normal;text-align:start;line-height:125%;letter-spacing:0px;word-spacing:0px;writing-mode:lr-tb;text-anchor:start;fill:#404040;fill-opacity:1;stroke:none;font-family:Lato;-inkscape-font-specification:Lato Medium"
       id="flowRoot2985">
      <path
         d="m 10.84275,96.452648 0,-48.72 5.472,0 c 1.279987,4.9e-5 2.079986,0.608048 2.4,1.824 l 0.624,4.752 c 1.791983,-2.143956 3.791981,-3.903954 6,-5.28 2.207977,-1.375951 4.783974,-2.063951 7.728,-2.064 3.263968,4.9e-5 5.903965,0.896049 7.92,2.688 2.015961,1.760045 3.47196,4.160043 4.368,7.2 0.703958,-1.727959 1.615957,-3.215957 2.736,-4.464 1.119955,-1.247955 2.367954,-2.271954 3.744,-3.072 1.375951,-0.799952 2.83195,-1.391951 4.368,-1.776 1.567946,-0.383951 3.151945,-0.575951 4.752,-0.576 5.215938,4.9e-5 9.247934,1.600048 12.096,4.8 2.847928,3.168042 4.271927,7.712037 4.272,13.632 l 0,46.882002 3,0 -7.56,7.89459 -7.56,-7.89459 3,0 0,-46.882002 c -6.4e-5,-3.679965 -0.816063,-6.463962 -2.448,-8.352 -1.60006,-1.887959 -3.936058,-2.831958 -7.008,-2.832 -1.376053,4.2e-5 -2.688052,0.240042 -3.936,0.72 -1.216049,0.480041 -2.288048,1.18404 -3.216,2.112 -0.928046,0.928038 -1.664046,2.096037 -2.208,3.504 -0.544045,1.408034 -0.816044,3.024033 -0.816,4.848 l 0,31.056 -9.12,0 0,-31.056 c -3.5e-5,-3.775965 -0.768034,-6.575962 -2.304,-8.4 -1.504031,-1.855959 -3.728029,-2.783958 -6.672,-2.784 -2.016024,4.2e-5 -3.920022,0.544042 -5.712,1.632 -1.760019,1.05604 -3.360017,2.528038 -4.8,4.416 l 0,36.192 -9.12,0"
         id="path3819"
         inkscape:connector-curvature="0"
         sodipodi:nodetypes="cccccccccsccccccccccccccsccccscccccc" />
    </g>
  </g>
</svg>
